<svg width="35" height="50" viewBox="0 0 35 50" fill="none" xmlns="http://www.w3.org/2000/svg">
<path d="M0 9.81388L17.3443 0L17.4415 9.86246L13.1176 12.3402L8.74504 14.8666L0 9.81388Z" fill="#FC4502"/>
<path d="M17.3438 0L34.5909 9.81388L25.943 14.8666L20.5017 11.6601L17.3438 9.81388V0Z" fill="#FC4502"/>
<path d="M25.8945 14.8669L34.591 9.81421V29.6849L25.8945 24.6808V14.8669Z" fill="#FC4502"/>
<path d="M25.8944 24.6807L34.5909 29.6848L17.4895 39.6444L17.3438 29.7334L25.8944 24.6807Z" fill="#FC4502"/>
<path d="M0.29248 19.7737L8.69744 24.4863L8.84319 34.6888L0.195312 39.6444L0.29248 19.7737Z" fill="#FC4502"/>
<path d="M0.195312 39.6442L8.84319 34.6887L17.4911 39.6442L17.4911 49.701L0.195312 39.6442Z" fill="#FC4502"/>
<path d="M11.0273 20.5996L20.0153 14.8667L18.9465 20.5996H14.6711H11.0273Z" fill="#FC4502"/>
<path d="M22.5902 20.5996L13.6023 26.3324L14.6711 20.5996H18.9465H22.5902Z" fill="#FC4502"/>
</svg>
