<svg width="100" height="50" viewBox="0 0 100 50" fill="none" xmlns="http://www.w3.org/2000/svg">
<path d="M0 9.81388L17.3443 0L17.4415 9.86246L13.1176 12.3402L8.74504 14.8666L0 9.81388Z" fill="#FC4502"/>
<path d="M17.3438 0L34.5909 9.81388L25.943 14.8666L20.5017 11.6601L17.3438 9.81388V0Z" fill="#FC4502"/>
<path d="M25.8926 14.8667L34.589 9.81396V29.6846L25.8926 24.6805V14.8667Z" fill="#FC4502"/>
<path d="M25.8944 24.6807L34.5909 29.6848L17.4895 39.6444L17.3438 29.7334L25.8944 24.6807Z" fill="#FC4502"/>
<path d="M0.29248 19.7734L8.69744 24.486L8.84319 34.6886L0.195312 39.6441L0.29248 19.7734Z" fill="#FC4502"/>
<path d="M0.195312 39.644L8.84319 34.6885L17.4911 39.644L17.4911 49.7008L0.195312 39.644Z" fill="#FC4502"/>
<path d="M11.0273 20.5996L20.0153 14.8667L18.9465 20.5996H14.6711H11.0273Z" fill="#FC4502"/>
<path d="M22.5902 20.5996L13.6023 26.3324L14.6711 20.5996H18.9465H22.5902Z" fill="#FC4502"/>
<path d="M42.3819 9.1908H48.2656C49.4287 9.1908 50.3663 9.52014 51.0784 10.1788C51.7904 10.8316 52.1465 11.7514 52.1465 12.9382C52.1465 13.9589 51.829 14.849 51.1941 15.6085C50.5591 16.3622 49.583 16.739 48.2656 16.739H44.1533V22.2666H42.3819V9.1908ZM50.3574 12.9471C50.3574 11.9858 50.0013 11.333 49.2892 10.9888C48.8976 10.8049 48.3605 10.7129 47.6781 10.7129H44.1533V15.2436H47.6781C48.4733 15.2436 49.1171 15.0745 49.6097 14.7362C50.1081 14.398 50.3574 13.8016 50.3574 12.9471ZM54.2027 12.7335H55.7248V14.3802C55.8494 14.0597 56.155 13.6711 56.6416 13.2141C57.1282 12.7513 57.6889 12.5198 58.3239 12.5198C58.3536 12.5198 58.404 12.5228 58.4752 12.5287C58.5464 12.5347 58.6681 12.5465 58.8402 12.5643V14.2556C58.7452 14.2378 58.6562 14.2259 58.5731 14.22C58.496 14.214 58.4099 14.2111 58.315 14.2111C57.508 14.2111 56.8878 14.4722 56.4547 14.9944C56.0215 15.5106 55.8049 16.107 55.8049 16.7835V22.2666H54.2027V12.7335ZM64.0117 21.2341C65.0739 21.2341 65.8009 20.8335 66.1925 20.0324C66.5901 19.2254 66.7889 18.3293 66.7889 17.3443C66.7889 16.4541 66.6465 15.7302 66.3616 15.1724C65.9106 14.2941 65.1333 13.855 64.0295 13.855C63.0504 13.855 62.3383 14.2289 61.8933 14.9766C61.4482 15.7243 61.2257 16.6262 61.2257 17.6825C61.2257 18.6972 61.4482 19.5428 61.8933 20.2193C62.3383 20.8958 63.0445 21.2341 64.0117 21.2341ZM64.074 12.4575C65.3024 12.4575 66.3409 12.867 67.1894 13.6859C68.038 14.5048 68.4623 15.7094 68.4623 17.2998C68.4623 18.8367 68.0885 20.1066 67.3408 21.1095C66.5931 22.1123 65.433 22.6137 63.8604 22.6137C62.549 22.6137 61.5075 22.1717 60.7361 21.2875C59.9647 20.3974 59.579 19.2046 59.579 17.7092C59.579 16.107 59.9854 14.8312 60.7984 13.8817C61.6114 12.9323 62.7033 12.4575 64.074 12.4575ZM73.7407 12.5643C74.4884 12.5643 75.1411 12.7483 75.699 13.1162C76.0016 13.3239 76.3102 13.6265 76.6247 14.0241V12.8225H78.1023V21.4922C78.1023 22.7028 77.9242 23.6581 77.5682 24.3584C76.9036 25.652 75.6485 26.2988 73.803 26.2988C72.7764 26.2988 71.913 26.0674 71.2128 25.6045C70.5125 25.1476 70.1209 24.4296 70.0378 23.4505H71.6667C71.7439 23.8777 71.8982 24.2071 72.1296 24.4385C72.4916 24.7945 73.0612 24.9726 73.8386 24.9726C75.067 24.9726 75.871 24.5394 76.2508 23.673C76.4763 23.1627 76.5802 22.2518 76.5624 20.9403C76.2419 21.4269 75.8562 21.7889 75.4052 22.0263C74.9542 22.2636 74.3578 22.3823 73.6161 22.3823C72.5835 22.3823 71.6786 22.0174 70.9012 21.2875C70.1298 20.5516 69.7441 19.3381 69.7441 17.6469C69.7441 16.0506 70.1328 14.8045 70.9101 13.9084C71.6934 13.0124 72.637 12.5643 73.7407 12.5643ZM76.6247 17.46C76.6247 16.2791 76.3814 15.4038 75.8948 14.8341C75.4082 14.2645 74.7881 13.9796 74.0344 13.9796C72.907 13.9796 72.1355 14.5078 71.7201 15.564C71.5006 16.1278 71.3908 16.8666 71.3908 17.7804C71.3908 18.8545 71.6074 19.6734 72.0406 20.2371C72.4797 20.7949 73.0672 21.0738 73.803 21.0738C74.9542 21.0738 75.7642 20.5546 76.233 19.5161C76.4941 18.9287 76.6247 18.2433 76.6247 17.46ZM80.5679 12.7335H82.09V14.3802C82.2146 14.0597 82.5202 13.6711 83.0068 13.2141C83.4934 12.7513 84.0542 12.5198 84.6891 12.5198C84.7188 12.5198 84.7692 12.5228 84.8404 12.5287C84.9117 12.5347 85.0333 12.5465 85.2054 12.5643V14.2556C85.1104 14.2378 85.0214 14.2259 84.9384 14.22C84.8612 14.214 84.7752 14.2111 84.6802 14.2111C83.8732 14.2111 83.2531 14.4722 82.8199 14.9944C82.3867 15.5106 82.1701 16.107 82.1701 16.7835V22.2666H80.5679V12.7335ZM86.594 12.778H88.2229V22.2666H86.594V12.778ZM86.594 9.1908H88.2229V11.0066H86.594V9.1908ZM91.6676 17.6113C91.6676 18.632 91.8842 19.4865 92.3174 20.1748C92.7506 20.8632 93.4449 21.2074 94.4003 21.2074C95.1421 21.2074 95.7503 20.8899 96.225 20.2549C96.7057 19.6141 96.946 18.6972 96.946 17.5045C96.946 16.2999 96.6998 15.4097 96.2072 14.8341C95.7147 14.2526 95.1064 13.9618 94.3825 13.9618C93.5754 13.9618 92.9197 14.2704 92.4153 14.8875C91.9169 15.5047 91.6676 16.4126 91.6676 17.6113ZM94.0798 12.5643C94.8097 12.5643 95.421 12.7186 95.9135 13.0272C96.1983 13.2052 96.5217 13.5168 96.8837 13.9618V9.1463H98.4236V22.2666H96.9816V20.9403C96.6078 21.5278 96.1657 21.9521 95.6554 22.2132C95.145 22.4743 94.5605 22.6048 93.9018 22.6048C92.8396 22.6048 91.9198 22.1598 91.1425 21.2697C90.3651 20.3736 89.9764 19.1838 89.9764 17.7003C89.9764 16.3117 90.3295 15.1101 91.0356 14.0953C91.7477 13.0747 92.7625 12.5643 94.0798 12.5643Z" fill="black"/>
<path d="M42.8995 27.3583H52.4326V28.9605H44.6263V32.9304H51.8451V34.4436H44.6263V38.8764H52.5661V40.4341H42.8995V27.3583ZM54.6757 30.901H56.1978V32.2539C56.6488 31.6961 57.1265 31.2956 57.6309 31.0523C58.1353 30.809 58.696 30.6873 59.3132 30.6873C60.6662 30.6873 61.58 31.1591 62.0547 32.1026C62.3158 32.6189 62.4464 33.3577 62.4464 34.319V40.4341H60.8175V34.4258C60.8175 33.8443 60.7314 33.3755 60.5593 33.0194C60.2745 32.426 59.7582 32.1293 59.0105 32.1293C58.6308 32.1293 58.3192 32.1679 58.0759 32.245C57.6368 32.3756 57.2511 32.6367 56.9188 33.0283C56.6517 33.3428 56.4767 33.6692 56.3936 34.0075C56.3165 34.3398 56.2779 34.8175 56.2779 35.4405V40.4341H54.6757V30.901ZM68.7929 30.6873C69.4694 30.6873 70.1251 30.8476 70.76 31.168C71.395 31.4825 71.8786 31.892 72.2109 32.3964C72.5314 32.877 72.745 33.4378 72.8518 34.0787C72.9468 34.5178 72.9942 35.218 72.9942 36.1793H66.0068C66.0365 37.1466 66.265 37.924 66.6922 38.5114C67.1195 39.093 67.7811 39.3837 68.6772 39.3837C69.5139 39.3837 70.1815 39.1078 70.6799 38.5559C70.9648 38.2355 71.1665 37.8646 71.2852 37.4433H72.8607C72.8192 37.7934 72.6797 38.1851 72.4424 38.6183C72.2109 39.0455 71.9498 39.3956 71.6591 39.6686C71.1725 40.1433 70.5702 40.4638 69.8521 40.6299C69.4664 40.7249 69.0303 40.7723 68.5437 40.7723C67.3568 40.7723 66.351 40.3421 65.5262 39.4817C64.7013 38.6153 64.2889 37.4047 64.2889 35.85C64.2889 34.319 64.7043 33.0758 65.5351 32.1204C66.3659 31.165 67.4518 30.6873 68.7929 30.6873ZM71.3475 34.9065C71.2822 34.2122 71.1309 33.6574 70.8936 33.242C70.4544 32.4705 69.7216 32.0848 68.695 32.0848C67.9592 32.0848 67.342 32.3519 66.8435 32.8859C66.3451 33.4141 66.081 34.0876 66.0513 34.9065H71.3475ZM75.0148 30.901H76.5369V32.5477C76.6615 32.2272 76.9671 31.8386 77.4537 31.3816C77.9403 30.9188 78.5011 30.6873 79.136 30.6873C79.1657 30.6873 79.2161 30.6903 79.2873 30.6962C79.3585 30.7022 79.4802 30.714 79.6523 30.7318V32.4231C79.5573 32.4053 79.4683 32.3934 79.3852 32.3875C79.3081 32.3815 79.2221 32.3786 79.1271 32.3786C78.3201 32.3786 77.7 32.6397 77.2668 33.1619C76.8336 33.6781 76.617 34.2745 76.617 34.951V40.4341H75.0148V30.901ZM84.4055 30.7318C85.1532 30.7318 85.8059 30.9158 86.3637 31.2837C86.6664 31.4914 86.9749 31.794 87.2895 32.1916V30.99H88.767V39.6597C88.767 40.8702 88.589 41.8256 88.233 42.5258C87.5684 43.8195 86.3133 44.4663 84.4678 44.4663C83.4412 44.4663 82.5778 44.2349 81.8776 43.772C81.1773 43.3151 80.7857 42.5971 80.7026 41.6179H82.3315C82.4087 42.0452 82.5629 42.3745 82.7944 42.606C83.1564 42.962 83.726 43.14 84.5034 43.14C85.7318 43.14 86.5358 42.7068 86.9156 41.8405C87.1411 41.3301 87.2449 40.4192 87.2271 39.1078C86.9067 39.5944 86.521 39.9564 86.07 40.1938C85.619 40.4311 85.0226 40.5498 84.2809 40.5498C83.2483 40.5498 82.3434 40.1849 81.566 39.455C80.7946 38.7191 80.4089 37.5056 80.4089 35.8144C80.4089 34.2181 80.7976 32.972 81.5749 32.0759C82.3582 31.1799 83.3017 30.7318 84.4055 30.7318ZM87.2895 35.6275C87.2895 34.4466 87.0462 33.5713 86.5596 33.0016C86.073 32.432 85.4529 32.1471 84.6992 32.1471C83.5717 32.1471 82.8003 32.6753 82.3849 33.7315C82.1654 34.2953 82.0556 35.0341 82.0556 35.9479C82.0556 37.022 82.2722 37.8409 82.7054 38.4046C83.1445 38.9624 83.732 39.2413 84.4678 39.2413C85.619 39.2413 86.429 38.7221 86.8978 37.6836C87.1589 37.0962 87.2895 36.4108 87.2895 35.6275ZM97.143 30.901H98.9143C98.6888 31.5122 98.1874 32.9067 97.41 35.0845C96.8285 36.7223 96.3419 38.0575 95.9503 39.09C95.0245 41.523 94.3718 43.0065 93.992 43.5406C93.6122 44.0746 92.9595 44.3417 92.0338 44.3417C91.8083 44.3417 91.6332 44.3328 91.5086 44.315C91.3899 44.2972 91.2416 44.2645 91.0635 44.2171V42.7573C91.3424 42.8344 91.5442 42.8819 91.6688 42.8997C91.7934 42.9175 91.9032 42.9264 91.9982 42.9264C92.2949 42.9264 92.5115 42.876 92.6479 42.7751C92.7904 42.6801 92.909 42.5615 93.004 42.419C93.0337 42.3716 93.1405 42.1283 93.3244 41.6891C93.5084 41.25 93.6419 40.9236 93.725 40.71L90.2001 30.901H92.016L94.5706 38.6628L97.143 30.901Z" fill="black"/>
</svg>
